Coordinates
version=1
nRows=5
nColumns=114
inDegrees=yes

Units are S.I. units (second, meters, Newtons, ...)
If the header above contains a line with 'inDegrees', this indicates whether rotational values are in degrees (yes) or radians (no).

endheader 
time	pelvis_tilt	pelvis_list	pelvis_rotation	pelvis_tx	pelvis_ty	pelvis_tz	hip_flexion_l	hip_adduction_l	hip_rotation_l	hip_flexion_r	hip_adduction_r	hip_rotation_r	knee_angle_l	knee_angle_r	ankle_angle_l	ankle_angle_r	subtalar_angle_l	subtalar_angle_r	mtp_angle_l	mtp_angle_r	lumbar_extension	lumbar_bending	lumbar_rotation	arm_flex_l	arm_add_l	arm_rot_l	arm_flex_r	arm_add_r	arm_rot_r	elbow_flex_l	elbow_flex_r	pro_sup_l	pro_sup_r	addbrev_l/activation	addlong_l/activation	addmagDist_l/activation	addmagIsch_l/activation	addmagMid_l/activation	addmagProx_l/activation	bflh_l/activation	bfsh_l/activation	edl_l/activation	ehl_l/activation	fdl_l/activation	fhl_l/activation	gaslat_l/activation	gasmed_l/activation	glmax1_l/activation	glmax2_l/activation	glmax3_l/activation	glmed1_l/activation	glmed2_l/activation	glmed3_l/activation	glmin1_l/activation	glmin2_l/activation	glmin3_l/activation	grac_l/activation	iliacus_l/activation	perbrev_l/activation	perlong_l/activation	piri_l/activation	psoas_l/activation	recfem_l/activation	sart_l/activation	semimem_l/activation	semiten_l/activation	soleus_l/activation	tfl_l/activation	tibant_l/activation	tibpost_l/activation	vasint_l/activation	vaslat_l/activation	vasmed_l/activation	addbrev_r/activation	addlong_r/activation	addmagDist_r/activation	addmagIsch_r/activation	addmagMid_r/activation	addmagProx_r/activation	bflh_r/activation	bfsh_r/activation	edl_r/activation	ehl_r/activation	fdl_r/activation	fhl_r/activation	gaslat_r/activation	gasmed_r/activation	glmax1_r/activation	glmax2_r/activation	glmax3_r/activation	glmed1_r/activation	glmed2_r/activation	glmed3_r/activation	glmin1_r/activation	glmin2_r/activation	glmin3_r/activation	grac_r/activation	iliacus_r/activation	perbrev_r/activation	perlong_r/activation	piri_r/activation	psoas_r/activation	recfem_r/activation	sart_r/activation	semimem_r/activation	semiten_r/activation	soleus_r/activation	tfl_r/activation	tibant_r/activation	tibpost_r/activation	vasint_r/activation	vaslat_r/activation	vasmed_r/activation	
          1.95000000	         -4.59939472	          0.88178337	        -33.12280318	          1.32106426	          1.18415423	          0.44367055	          9.98271437	         -9.75562020	         -1.35215881	          7.79748875	         -2.28007714	         -7.74915963	         22.91858510	         29.27630979	        -19.18074879	        -15.80335102	         -8.77270921	         -8.22415454	        -44.99615382	        -44.99956275	        -11.41407579	         -2.96135645	         -0.42085085	        -13.13576582	        -22.18913463	         -8.00309011	        -22.19633731	        -21.29508359	          0.47328571	         37.75155645	         46.34987706	         86.89239605	         80.42059347	          0.01115654	          0.02418712	          0.01002026	          0.01001581	          0.01003560	          0.01012414	          0.01000649	          0.03602837	          0.11330057	          0.03761386	          0.01025143	          0.01009582	          0.01214614	          0.01207090	          0.01001918	          0.01000855	          0.01000704	          0.13386771	          0.04792879	          0.01008658	          0.07024346	          0.06250297	          0.03938474	          0.01029796	          0.12419054	          0.02755159	          0.03471239	          0.01023375	          0.06600097	          0.07768190	          0.08692171	          0.01000715	          0.01002943	          0.01001940	          0.19580091	          0.10697837	          0.01003797	          0.01001135	          0.01000366	          0.01000805	          0.03440726	          0.06925760	          0.02062851	          0.02513537	          0.02094977	          0.01608638	          0.01001168	          0.01161614	          0.10033020	          0.01270562	          0.01129660	          0.01079632	          0.01037848	          0.01020713	          0.01000872	          0.01000602	          0.01001154	          0.21591295	          0.01001604	          0.01000701	          0.14838115	          0.01006200	          0.01001863	          0.01540695	          0.14312076	          0.02252960	          0.05102217	          0.01000668	          0.03100996	          0.13210715	          0.01084292	          0.01001777	          0.01009872	          0.01012174	          0.13914770	          0.10414354	          0.01043298	          0.01294029	          0.03086255	          0.01470477	
          1.96000000	         -4.91327658	          0.83109312	        -33.18169193	          1.31795051	          1.18067899	          0.44274836	         10.66563453	        -10.11240602	         -1.30989976	          8.54002787	         -1.86762563	         -7.22857040	         23.11232793	         29.53607975	        -18.54333199	        -15.32767720	         -7.54189497	         -7.34850910	        -39.68868224	        -39.70293164	        -11.51903814	         -2.97513289	         -0.11144753	        -12.42494229	        -22.05324520	         -7.36015774	        -22.06390128	        -21.04212953	          0.07277796	         37.87243658	         46.46605518	         86.75472972	         80.12403143	          0.01022934	          0.02018978	          0.01019668	          0.01019002	          0.01022586	          0.01055333	          0.01038846	          0.03008483	          0.09445179	          0.03163362	          0.01353624	          0.01122413	          0.01016764	          0.01007944	          0.03595192	          0.01886736	          0.01017644	          0.11157722	          0.04006023	          0.04465714	          0.05858151	          0.05214526	          0.03294875	          0.01061703	          0.10350684	          0.02302903	          0.02895454	          0.05164442	          0.05502246	          0.06474348	          0.07246820	          0.01019989	          0.01025010	          0.01003113	          0.16318248	          0.08921276	          0.01548650	          0.01955629	          0.02512221	          0.01597687	          0.02868824	          0.05772195	          0.01725672	          0.02100322	          0.01748848	          0.01345583	          0.01093668	          0.01068027	          0.09468118	          0.03464230	          0.01108985	          0.01054135	          0.01009292	          0.01004610	          0.01454242	          0.02429742	          0.01139861	          0.21014635	          0.11614249	          0.01108308	          0.12370899	          0.04899050	          0.01695099	          0.01290779	          0.11928387	          0.02328731	          0.04414625	          0.04973703	          0.02586952	          0.11010041	          0.01065018	          0.01116857	          0.01065522	          0.01005166	          0.11603096	          0.09050486	          0.01025735	          0.03011164	          0.03193719	          0.03016081	
          1.97000000	         -5.20702519	          0.98495763	        -33.16432021	          1.31495691	          1.17615585	          0.44182400	         11.37568842	        -10.23606706	         -1.13406697	          9.16475283	         -1.64865133	         -6.66774142	         23.00644115	         29.13648166	        -18.07757904	        -15.05461492	         -7.14087780	         -7.04721718	        -35.00736779	        -35.01789537	        -11.51440587	         -3.21121605	         -0.09029222	        -12.16615815	        -21.78195327	         -7.37373503	        -21.58734816	        -20.88627231	          0.27538693	         38.17652866	         46.43013692	         86.64583138	         80.04191377	          0.01349168	          0.01691498	          0.01989846	          0.02942502	          0.01699587	          0.01312037	          0.06599152	          0.02514212	          0.07874966	          0.02653723	          0.01396023	          0.01612637	          0.01048704	          0.01034932	          0.03053219	          0.06032310	          0.03374962	          0.09300877	          0.03345217	          0.03729590	          0.04887142	          0.04351170	          0.02753998	          0.01188531	          0.08627430	          0.01928858	          0.02418630	          0.04307148	          0.04587361	          0.05395977	          0.06042438	          0.04996324	          0.01496121	          0.01193198	          0.13600522	          0.07444345	          0.01952293	          0.02106064	          0.02114545	          0.02102005	          0.02392308	          0.04811125	          0.01444590	          0.01754060	          0.01460626	          0.01129310	          0.01437140	          0.01066587	          0.08910419	          0.03331802	          0.01094666	          0.01044175	          0.01009518	          0.01005092	          0.02000961	          0.02040743	          0.01419573	          0.17522404	          0.11109887	          0.10581358	          0.10316779	          0.04275494	          0.03606617	          0.01090120	          0.09943198	          0.02565847	          0.04023357	          0.04154166	          0.02159327	          0.09176303	          0.01032689	          0.01482007	          0.01457291	          0.01004424	          0.10849390	          0.09172366	          0.01021575	          0.02512241	          0.02662304	          0.02515470	
          1.98000000	         -5.44443874	          1.18620652	        -33.16982605	          1.31233258	          1.17076264	          0.44107140	         11.82148579	        -10.28527644	         -1.10662804	          9.49581965	         -1.53518293	         -6.16544164	         22.41190181	         28.08005716	        -17.82536229	        -14.75189229	         -6.73419337	         -6.76012094	        -30.88214000	        -30.88107570	        -11.46674459	         -3.51633627	         -0.12919706	        -12.08944404	        -21.46945985	         -7.49428545	        -20.91593406	        -20.81763998	          0.81548844	         38.44617501	         46.07645009	         86.83452427	         80.28262891	          0.01317620	          0.01418567	          0.01676273	          0.02464061	          0.01454481	          0.01401234	          0.05771234	          0.02105998	          0.06571972	          0.02260308	          0.01567987	          0.01524026	          0.01011933	          0.01005302	          0.04654933	          0.05338661	          0.02822471	          0.07754071	          0.02796219	          0.03121616	          0.04079639	          0.03634211	          0.02308277	          0.01327981	          0.07191648	          0.01619059	          0.02020287	          0.03794702	          0.03825113	          0.04497333	          0.05040387	          0.04370944	          0.01979345	          0.01128021	          0.11337298	          0.06413514	          0.01765582	          0.01760302	          0.01763534	          0.01755283	          0.01995686	          0.04010531	          0.01208477	          0.01463813	          0.01220959	          0.01017891	          0.01201327	          0.02213002	          0.08326797	          0.03099646	          0.01099309	          0.01045948	          0.01026800	          0.01015500	          0.01672053	          0.01702510	          0.01186863	          0.14606169	          0.09269608	          0.08830143	          0.08607943	          0.09198114	          0.08328887	          0.01032498	          0.08294947	          0.02496254	          0.03574926	          0.04309841	          0.01810151	          0.07648328	          0.02360515	          0.01237116	          0.01222952	          0.01004784	          0.10634652	          0.09090362	          0.01022765	          0.02095246	          0.02219087	          0.02097402	
          1.99000000	         -5.63861279	          1.35438852	        -33.21747824	          1.31011992	          1.16452695	          0.44048271	         11.95548646	        -10.35481539	         -1.29325007	          9.52567190	         -1.46655924	         -5.78363003	         21.34804695	         26.47689890	        -17.87499815	        -14.40933962	         -5.99436373	         -6.26855925	        -27.24947080	        -27.23784623	        -11.40214862	         -3.78842118	         -0.11505981	        -11.98589583	        -21.17706518	         -7.46063580	        -20.21227791	        -20.78489773	          1.40699212	         38.55495749	         45.43592055	         87.41895661	         80.85068700	          0.01112519	          0.01187762	          0.01400775	          0.02056723	          0.01217691	          0.01181741	          0.04813089	          0.02168805	          0.06401220	          0.02152169	          0.01337984	          0.01289562	          0.01374354	          0.02145075	          0.03919795	          0.04454761	          0.02353978	          0.07551402	          0.06331915	          0.04978331	          0.03475201	          0.03169035	          0.02625922	          0.01154224	          0.05996421	          0.01391253	          0.01728808	          0.04685363	          0.03190286	          0.03748264	          0.04219693	          0.12600689	          0.01682413	          0.01009785	          0.09453906	          0.06654130	          0.01476473	          0.01468647	          0.01470112	          0.01463930	          0.01667060	          0.03344492	          0.01021240	          0.01222168	          0.01029958	          0.01034107	          0.01007791	          0.01922946	          0.07692288	          0.02800634	          0.01108164	          0.01050636	          0.01011643	          0.01005771	          0.01396483	          0.01420153	          0.01007821	          0.12173552	          0.07728735	          0.07364233	          0.07180157	          0.07695418	          0.06971370	          0.01039905	          0.12810220	          0.02286188	          0.03127385	          0.03603674	          0.05698220	          0.06374975	          0.05253869	          0.01032588	          0.01027196	          0.01004595	          0.09243017	          0.07712907	          0.01026322	          0.01748037	          0.01849787	          0.01749164	
